<?xml version="1.0" encoding="utf-8"?>
<!-- Generator: Adobe Illustrator 19.0.0, SVG Export Plug-In . SVG Version: 6.00 Build 0)  -->
<svg version="1.1" id="圖層_2" xmlns="http://www.w3.org/2000/svg" xmlns:xlink="http://www.w3.org/1999/xlink" x="0px" y="0px"
	 viewBox="292.8 73 150 61.5" style="enable-background:new 292.8 73 150 61.5;" xml:space="preserve">
<style type="text/css">
	.st0{fill:#000;}
</style>
<g id="XMLID_23_">
	<g id="XMLID_45_">
		<path id="XMLID_66_" class="st0" d="M320.4,90.8c0.6,0.4,1.1,1.3,1.1,2.5c0,1.9-0.8,4-2.3,6.1c-2.7,4-5.9,6.1-9.5,6.1
			c-2.5,0-4.6-0.8-6.3-2.5c-1.7-1.7-2.5-4-2.5-6.6c0-3,0.8-5.9,2.3-8.7c1.5-3,3.6-5.3,6.1-7.4c4.9-3.8,10.8-5.7,17.5-5.7
			c3.2,0,5.7,0.6,7.4,1.9s2.7,3,2.7,5.1c0,2.3-1.1,4.4-3.4,6.1c-2.3,1.7-4.9,2.5-8,2.5c-1.7,0-5.1-0.6-9.9-1.7
			c-2.7-0.6-4.6-1.1-5.7-1.1c-0.8,0-1.9,0.2-2.7,0.4l0.2-0.4c1.1-1.1,1.7-1.9,2.1-2.5c0.6,0,1.1,0,1.5,0c1.7,0,5.1,0.6,9.9,1.9
			c3.4,0.8,5.9,1.5,7.6,1.5c1.9,0,3.6-0.6,5.1-1.7c1.3-1.1,2.1-2.5,2.1-4c0-1.9-1.1-3.6-3.2-4.9s-4.6-1.9-8-1.9
			c-2.7,0-5.5,0.6-8.2,1.7c-2.7,1.1-5.1,2.5-7,4.4c-4,3.8-5.9,8.2-5.9,13.3c0,2.5,0.8,4.6,2.3,6.1c1.5,1.5,3.6,2.3,6.1,2.3
			c2.5,0,4.9-1.1,6.6-3.4c1.7-2.3,2.5-5.1,2.5-8.2v-1.5H320.4z"/>
		<path id="XMLID_68_" class="st0" d="M346.6,101.8l0.4,0.6c-1.5,0.8-3.2,1.5-5.5,2.3l-0.6,0.2c0.2-2.3,1.7-6.6,4.6-12.9
			c0.4-1.1,0.6-1.7,0.6-1.9c0-0.4-0.2-0.6-0.4-0.6c-0.4,0-1.1,0.4-1.9,1.1c-0.8,0.6-1.9,1.7-2.7,2.7c-1.3,1.5-2.7,3.2-4,5.3
			c-1.3,2.1-2.3,3.8-3,5.3c-1.1,0.2-1.9,0.4-2.7,0.8l0.2-0.6c1.1-2.3,1.9-4.4,2.7-6.6l2.5-6.6l2.5-6.3c1.3-3.2,1.9-5.1,1.9-5.9
			c0-0.4-0.2-0.8-0.6-0.8c-0.2,0-0.6,0.2-1.3,0.4l-0.2,0.2l-0.6-0.8c1.7-0.6,3.4-1.3,5.3-2.3l0.4-0.2c0,0.2,0,0.4,0,0.6
			c0,1.1-0.4,2.7-1.1,4.6c-0.6,2.1-2.1,5.7-4.4,11l-2.3,5.7l-0.2,0.6l0.4-0.4c5.5-6.8,9.5-10.4,11.8-10.4c0.6,0,1.1,0.4,1.1,1.1
			c0,0.4-0.2,1.3-0.8,2.5l-1.3,3c-2.3,5.1-3.4,7.8-3.4,8.7c0,0.4,0.2,0.4,0.4,0.4C344.7,102.7,345.5,102.4,346.6,101.8L346.6,101.8z
			"/>
		<path id="XMLID_70_" class="st0" d="M364.5,88.9c-0.8,0-1.5-0.2-1.9-0.2c-3.8,0-6.8,1.5-8.7,4.4c-0.8,1.1-1.5,2.5-2.1,4
			c-0.6,1.5-0.8,2.7-0.8,3.8c0,0.6,0.2,1.3,0.6,1.7c0.4,0.4,0.8,0.6,1.5,0.6c1.5,0,3.2-1.3,5.1-3.6c1.9-2.3,2.7-4.6,2.7-6.6
			c0-0.4-0.2-0.8-0.4-1.1s-0.4-0.4-0.8-0.4c-1.1,0-2.3,1.1-3.4,3.4c0-0.2-0.2-0.6-0.2-0.8c0-0.8,0.6-1.9,1.7-2.7
			c1.1-0.8,2.1-1.5,3.2-1.5c0.6,0,1.3,0.2,1.7,0.8c0.4,0.6,0.6,1.3,0.6,1.9c0,2.5-1.7,5.3-5.1,8.2c-3,2.5-5.3,3.8-7.2,3.8
			c-0.8,0-1.5-0.2-2.1-0.8c-0.6-0.6-0.8-1.3-0.8-2.3c0-1.9,0.6-4,2.1-6.1s3.2-4,5.5-5.5c1.3-0.8,2.5-1.5,4-2.1
			c1.5-0.6,2.7-0.8,3.8-0.8c0.6,0,1.1,0.2,1.1,0.8C364.7,88.1,364.5,88.5,364.5,88.9z"/>
		<path id="XMLID_72_" class="st0" d="M378.9,86.8l-3,5.7h-0.8l0.2-0.4c0.4-1.1,0.8-1.9,0.8-2.3s-0.6-0.8-1.7-0.8
			c-1.7,0-3.2,0.6-4.4,2.1c-1.3,1.3-2.1,3-3,4.9c-0.8,1.9-1.3,3.4-1.3,4.9c0,1.7,0.6,2.3,2.1,2.3c1.3,0,2.5-0.6,3.8-1.7
			c1.3-1.1,2.3-2.5,3.4-4.2l0.6-1.1c0,0,0-0.2,0.2-0.4c0.2,0.2,0.2,0.6,0.2,0.8c0,1.3-0.8,2.7-2.7,4.6c-2.7,2.5-5.3,4-7.4,4
			c-1.9,0-3-1.1-3-3.2c0-1.9,0.6-3.8,1.9-6.1c1.3-2.3,3-4,5.1-5.7c2.7-2.3,5.5-3.4,8.2-3.4C378.3,86.6,378.7,86.8,378.9,86.8z"/>
	</g>
	<g id="XMLID_44_">
		<path id="XMLID_51_" class="st0" d="M332,100.8l0.8,0.2c-0.2,0.8-0.2,1.5-0.2,1.7c0,0.4,0.2,0.6,0.8,0.8c0.4,0.2,1.5,0.2,3,0.2
			c1.1,0,2.3,0,4.2-0.2l5.5-0.4c1.9-0.2,3.6-0.2,5.3-0.2c4.4,0,8,0.8,10.4,2.7c2.3,1.9,3.6,4.4,3.6,7.8c0,2.5-0.6,5.1-1.7,7.6
			c-1.1,2.5-2.7,4.9-4.9,6.8c-3.2,3.2-6.8,4.6-10.6,4.6c-2.5,0-4.6-0.6-6.1-1.7c-1.7-1.1-3.4-3.2-5.3-6.3l-1.7-2.5l-0.2-0.4
			l-0.4,0.2c-4,1.3-7.2,1.9-9.1,1.9c-2.1,0-3.8-0.6-5.1-1.7c-1.3-1.1-1.9-2.7-1.9-4.6c0-2.7,1.3-4.9,3.6-6.3
			c1.7-1.1,3.2-1.5,4.9-1.5s3.2,0.6,4.4,1.9s3.2,4,5.5,8l0.2,0.4l0.8-0.2c5.3-2.1,10.6-4.2,15.6-6.6l4.9-2.3l0.6-0.2
			c0,0.2,0,0.4,0,0.6c0,1.1-0.4,3-1.5,5.9c-1.1,2.7-1.5,4.2-1.5,4.9c0,0.4,0.2,0.6,0.8,0.6c0.2,0,0.6,0,1.3-0.2l0.2,0.8l-0.4,0.2
			c-1.3,0.4-2.5,0.8-4.2,1.5l-0.6,0.2c0-0.4,0-0.8,0.2-1.3l0.2-0.6c0.2-0.8,0.6-2.5,1.5-4.9c0.8-2.1,1.1-3.6,1.1-3.8
			c0-0.6-0.2-0.8-0.6-0.8c-0.2,0-0.6,0.2-1.3,0.4l-1.5,0.6l-4.9,2.1c-3.4,1.5-6.8,2.7-9.7,3.8l-0.4,0.2c2.1,3.6,4,6.3,5.9,7.8
			c1.9,1.5,4,2.3,6.3,2.3c2.1,0,4-0.6,5.9-1.7c1.9-1.1,3.6-2.5,4.6-4.4c2.1-3.2,3.2-6.6,3.2-9.9c0-3-1.1-5.3-3.2-7
			c-2.1-1.7-5.1-2.3-8.9-2.3c-1.5,0-3,0-5.1,0.2l-7.4,0.6c-1.3,0.2-2.5,0.2-4,0.2c-1.7,0-3-0.2-4.2-0.6l0.2-0.4
			c0.2-0.8,0.4-1.5,0.6-2.1l0.4-2.3L332,100.8z M334.3,121l-0.4-0.8c-2.1-3.6-3.8-5.9-5.1-7c-1.3-1.1-2.7-1.7-4.4-1.7
			c-1.5,0-2.5,0.4-3.6,1.5c-1.1,1.1-1.5,2.3-1.5,3.6c0,1.7,0.6,3.2,1.9,4.2c1.3,1.1,3,1.7,5.1,1.7
			C328.4,122.5,331.1,122.1,334.3,121z"/>
		<path id="XMLID_54_" class="st0" d="M375.3,123.2c0.2,0.4,0.2,0.8,0.2,1.1c0,1.5-1.1,3-3,4.9c-2.7,2.7-5.3,4-7.2,4
			c-1.7,0-2.5-1.1-2.5-3c0-2.1,0.6-4.4,1.9-6.8c1.3-2.3,3-4.4,5.1-5.9c2.5-1.9,4.6-2.7,6.8-2.7c1.1,0,1.7,0.4,1.7,1.3
			c0,0.6-0.2,1.3-0.8,1.9c-0.6,0.8-1.3,1.5-2.1,2.1c-0.8,0.6-1.7,1.1-3,1.5s-2.1,0.6-2.7,0.6c-0.6,0-1.1-0.4-1.5-1.1
			c0.6,0,1.1,0.2,1.5,0.2c1.5,0,2.7-0.4,4-1.3c1.3-0.8,1.9-1.7,1.9-2.7c0-0.6-0.4-1.1-1.3-1.1c-1.7,0-3.2,1.1-4.9,3
			c-1.3,1.5-2.1,3-3,4.9c-0.8,1.9-1.1,3.6-1.1,4.9c0,1.5,0.6,2.3,1.9,2.3s2.7-0.8,4.2-2.3C373,127.4,374.3,125.5,375.3,123.2z"/>
		<path id="XMLID_56_" class="st0" d="M389.1,114.7l-0.2,0.4l-1.1,1.7c-0.4,0.6-0.8,1.3-1.3,1.9l-0.2,0.4l-0.6-0.4
			c0-0.2,0.2-0.2,0.2-0.4c0.2-0.6,0.4-1.1,0.4-1.3c0-0.6-0.4-0.8-1.5-0.8c-0.8,0-1.7,0.4-2.3,1.1c-0.6,0.6-1.1,1.5-1.1,2.3
			c0,0.4,0.2,1.1,0.4,1.7l1.1,2.3c0.4,0.8,0.4,1.5,0.4,2.5c0,1.7-1.1,3.4-3,4.9c-1.7,1.3-3.2,2.1-4.4,2.1c-0.6,0-1.3-0.2-1.9-0.6
			c-0.4-0.4-0.6-0.8-0.6-1.5c0-0.6,0.2-1.3,0.4-1.9c0.8,1.5,2.1,2.3,3.4,2.3c1.1,0,1.9-0.4,2.7-1.1c0.8-0.6,1.3-1.5,1.3-2.5
			c0-0.4-0.2-1.1-0.4-1.7l-1.3-2.7c-0.2-0.6-0.4-1.1-0.4-1.9c0-1.3,0.6-2.5,1.9-4c0.8-1.1,1.7-1.7,2.7-2.1c0.8-0.4,1.9-0.6,3.4-0.6
			C388,114.7,388.6,114.7,389.1,114.7z"/>
		<path id="XMLID_58_" class="st0" d="M399,114.7l-0.2,0.4l-1.1,1.7c-0.4,0.6-0.8,1.3-1.3,1.9l-0.2,0.4l-0.6-0.4
			c0-0.2,0.2-0.2,0.2-0.4c0.2-0.6,0.4-1.1,0.4-1.3c0-0.6-0.4-0.8-1.5-0.8c-0.8,0-1.7,0.4-2.3,1.1c-0.6,0.6-1.1,1.5-1.1,2.3
			c0,0.4,0.2,1.1,0.4,1.7l1.1,2.3c0.4,0.8,0.4,1.5,0.4,2.5c0,1.7-1.1,3.4-3,4.9c-1.7,1.3-3.2,2.1-4.4,2.1c-0.6,0-1.3-0.2-1.9-0.6
			c-0.4-0.4-0.6-0.8-0.6-1.5c0-0.6,0.2-1.3,0.4-1.9c0.8,1.5,2.1,2.3,3.4,2.3c1.1,0,1.9-0.4,2.7-1.1c0.8-0.6,1.3-1.5,1.3-2.5
			c0-0.4-0.2-1.1-0.4-1.7l-1.3-2.7c-0.2-0.6-0.4-1.1-0.4-1.9c0-1.3,0.6-2.5,1.9-4c0.8-1.1,1.7-1.7,2.7-2.1c0.8-0.4,1.9-0.6,3.4-0.6
			C398.1,114.7,398.6,114.7,399,114.7z"/>
		<path id="XMLID_60_" class="st0" d="M408.1,123.2c0.2,0.4,0.2,0.8,0.2,1.1c0,1.5-1.1,3-3,4.9c-2.7,2.7-5.3,4-7.2,4
			c-1.7,0-2.5-1.1-2.5-3c0-2.1,0.6-4.4,1.9-6.8c1.3-2.3,3-4.4,5.1-5.9c2.5-1.9,4.6-2.7,6.8-2.7c1.1,0,1.7,0.4,1.7,1.3
			c0,0.6-0.2,1.3-0.8,1.9c-0.6,0.8-1.3,1.5-2.1,2.1c-0.8,0.6-1.7,1.1-3,1.5s-2.1,0.6-2.7,0.6c-0.6,0-1.1-0.4-1.5-1.1
			c0.6,0,1.1,0.2,1.5,0.2c1.5,0,2.7-0.4,4-1.3c1.3-0.8,1.9-1.7,1.9-2.7c0-0.6-0.4-1.1-1.3-1.1c-1.7,0-3.2,1.1-4.9,3
			c-1.3,1.5-2.1,3-3,4.9c-0.8,1.9-1.1,3.6-1.1,4.9c0,1.5,0.6,2.3,1.9,2.3c1.3,0,2.7-0.8,4.2-2.3C406,127.4,407.2,125.5,408.1,123.2z
			"/>
		<path id="XMLID_62_" class="st0" d="M423.9,114.9l-0.8,2.1c-0.6-0.2-1.1-0.2-1.5-0.2c-1.7,0-3.4,1.3-5.3,3.8
			c-0.8,1.3-1.7,2.5-2.3,4c-0.6,1.5-1.5,3.6-2.3,6.6l-0.2,0.6c-0.8,0.2-1.9,0.4-2.7,0.6l0.2-0.6l1.9-5.1c1.9-4.9,2.7-7.8,2.7-8.7
			c0-0.4-0.2-0.6-0.6-0.6c-0.2,0-0.6,0.2-1.5,0.6l-0.2-0.6c2.1-1.1,3.8-2.1,5.5-3.2c0,0.2,0,0.4,0,0.6c0,1.1-0.4,3-1.5,5.5l0.4-0.6
			c3.4-3.8,5.7-5.5,7.2-5.5C423.3,114.5,423.5,114.7,423.9,114.9z"/>
		<path id="XMLID_64_" class="st0" d="M432.2,114.7l-0.2,0.6h-3l-0.2,0.4c-0.2,0.6-1.1,2.3-2.3,5.1c-0.4,1.1-1.3,2.7-2.1,4.6
			c-1.1,2.3-1.5,3.8-1.5,4.4c0,0.6,0.4,0.8,1.1,0.8c0.8,0,1.9-0.4,3.2-1.3l0.4,0.6c-0.8,0.6-1.9,1.3-3,1.7c-1.1,0.4-2.1,0.6-2.7,0.6
			c-1.1,0-1.7-0.4-1.7-1.3c0-0.6,0.6-2.3,1.9-5.1l2.3-5.1c1.3-3,1.9-4.6,2.1-5.1l0.2-0.4h-2.7l0.2-0.6h0.2c1.3,0,2.1-0.2,2.5-0.6
			s1.1-1.5,1.7-3.4c0.2,0,0.4,0,0.4,0c0.6,0,1.5,0,2.1-0.2c-0.2,0.4-0.4,1.1-0.8,2.1l-0.6,1.5l-0.2,0.4H432.2z"/>
	</g>
	<g id="XMLID_43_">
		<path class="st0" d="M393.1,93.8c0,0-1.7-7.4-10.1-4.9c0,0-4.2,1.7-3.8,7.6c0,0,0.6,3,2.3,5.5l1.9,3.4c0,0,1.7,3.8-0.2,7.8
			c0,0,6.3-1.7,9.3-2.7c0,0,4.9-1.7,8.5-4.4c0,0,4.6-3.2,5.1-8.2c0,0,0-4-3.8-5.9C402,91.9,396.9,89.3,393.1,93.8z"/>
	</g>
	<g id="XMLID_48_">
		<path class="st0" d="M418.8,102.4c0,0-0.8-3.8-5.3-2.5c0,0-2.1,0.8-2.1,4c0,0,0.2,1.5,1.3,3l1.1,1.7c0,0,0.8,1.9-0.2,4
			c0,0,3.4-0.8,4.9-1.5c0,0,2.5-0.8,4.4-2.3c0,0,2.3-1.7,2.5-4.2c0,0,0-2.1-1.9-3.2C423.5,101.6,420.9,100.1,418.8,102.4z"/>
	</g>
	<g id="XMLID_49_">
		<path class="st0" d="M414,90c0,0-0.4-2.1-3-1.5c0,0-1.3,0.4-1.1,2.1c0,0,0.2,0.8,0.6,1.7l0.6,1.1c0,0,0.4,1.1,0,2.3
			c0,0,1.9-0.4,2.7-0.8c0,0,1.5-0.4,2.5-1.3c0,0,1.3-0.8,1.5-2.3c0,0,0-1.1-1.1-1.7C416.5,89.3,415,88.7,414,90z"/>
	</g>
	<g id="XMLID_42_">
		<path class="st0" d="M339.4,114.5c0,0-0.6-2.1-3-1.3c0,0-1.3,0.6-1.1,2.1c0,0,0.2,0.8,0.6,1.5l0.6,1.1c0,0,0.4,1.1,0,2.3
			c0,0,1.9-0.6,2.7-0.8c0,0,1.5-0.6,2.3-1.3c0,0,1.3-0.8,1.3-2.3c0,0,0-1.1-1.1-1.7C341.9,113.9,340.4,113.2,339.4,114.5z"/>
	</g>
</g>
<g id="XMLID_22_">
	<path class="st0" d="M315.9,107.2c0,0,1.7-3.6,5.5-1.3c0,0,1.9,1.3,1.1,4.2c0,0-0.6,1.3-1.7,2.5l-1.3,1.5c0,0-1.3,1.7-0.6,3.8
		c0,0-3-1.5-4.2-2.3c0,0-2.1-1.5-3.6-3.2c0,0-1.9-2.1-1.5-4.6c0,0,0.4-1.9,2.5-2.5C311.7,105.3,314.4,104.6,315.9,107.2z"/>
</g>
</svg>
